<svg width="159" height="108" viewBox="0 0 159 108" fill="none" xmlns="http://www.w3.org/2000/svg">
  <path d="M10.7573 0.0971482C9.15406 -0.321078 7.51537 0.639534 7.09715 2.24273L0.281757 28.3684C-0.136469 29.9716 0.824142 31.6103 2.42734 32.0285C4.03054 32.4467 5.66923 31.4861 6.08746 29.8829L12.1456 6.66012L35.3684 12.7182C36.9716 13.1365 38.6103 12.1759 39.0285 10.5727C39.4467 8.96946 38.4861 7.33077 36.8829 6.91254L10.7573 0.0971482ZM155.422 107.944C157.048 108.263 158.625 107.204 158.944 105.578C159.263 103.952 158.204 102.375 156.578 102.056L155.422 107.944ZM7.41191 4.51716C11.5865 11.6386 21.5575 32.3158 43.9909 53.7324C66.4583 75.1815 101.349 97.3312 155.422 107.944L156.578 102.056C103.651 91.6688 69.7917 70.0685 48.1341 49.3926C26.4425 28.6842 16.9135 8.86143 12.5881 1.48284L7.41191 4.51716Z"  />
</svg>
