<svg width="65" height="94" viewBox="0 0 65 94" fill="none" xmlns="http://www.w3.org/2000/svg">
  <path d="M16.2333 0.26524C14.723 -0.415906 12.9464 0.25631 12.2652 1.76668L1.16533 26.3795C0.484185 27.8899 1.1564 29.6665 2.66677 30.3476C4.17713 31.0287 5.95371 30.3565 6.63485 28.8462L16.5014 6.96808L38.3795 16.8347C39.8899 17.5158 41.6665 16.8436 42.3476 15.3332C43.0287 13.8229 42.3565 12.0463 40.8462 11.3651L16.2333 0.26524ZM59.5139 92.7484C60.7557 93.8453 62.6515 93.7279 63.7484 92.4861C64.8453 91.2443 64.7279 89.3485 63.4861 88.2516L59.5139 92.7484ZM12.1941 4.06168C13.9172 8.61545 15.7782 14.6031 18.1552 21.7025C20.5097 28.7344 23.3215 36.6998 26.8698 44.9369C33.9567 61.3886 44.0484 79.0873 59.5139 92.7484L63.4861 88.2516C48.9516 75.4127 39.2933 58.6114 32.3802 42.5631C28.9285 34.5502 26.1778 26.7656 23.8448 19.7975C21.5343 12.8969 19.5828 6.63455 17.8059 1.93832L12.1941 4.06168Z" />
</svg>
