<svg width="384" height="261" viewBox="0 0 384 261" fill="none" xmlns="http://www.w3.org/2000/svg">
  <path d="M379.058 64.3913C379.058 96.5167 353.635 122.691 321.855 123.803C320.711 123.844 319.796 124.799 319.854 125.943L321.798 163.932C321.887 165.662 319.882 166.679 318.538 165.585L267.831 124.29C267.475 123.999 267.028 123.84 266.568 123.84H147.138C114.381 123.84 87.8268 97.2241 87.8268 64.3913C87.8268 31.5586 114.381 4.94238 147.138 4.94238H172.611H203.407H319.747C352.503 4.94238 379.058 31.5586 379.058 64.3913Z" fill="white" />
  <path className="outline" fill-rule="evenodd" clip-rule="evenodd" d="M319.747 9.88512C349.763 9.88512 374.115 34.2776 374.115 64.3915C374.115 94.0112 350.554 118.097 321.22 118.878C317.679 118.973 314.701 121.944 314.892 125.692L316.523 157.57L270.82 120.35C269.667 119.411 268.226 118.898 266.739 118.898H147.137C117.121 118.898 92.7692 94.5054 92.7692 64.3915C92.7692 34.2776 117.121 9.88512 147.137 9.88512H172.611C175.34 9.88512 177.553 7.67226 177.553 4.94256C177.553 2.21286 175.34 0 172.611 0H147.137C111.64 0 82.884 28.8399 82.884 64.3915C82.884 99.9431 111.64 128.783 147.137 128.783H265.522L316.253 170.098C320.596 173.635 327.075 170.35 326.789 164.756L324.938 128.576C358.007 125.926 384 98.1928 384 64.3915C384 28.8399 355.244 0 319.747 0H203.406C200.677 0 198.464 2.21286 198.464 4.94256C198.464 7.67226 200.677 9.88512 203.406 9.88512H319.747ZM330.392 36.5837C330.392 33.854 328.179 31.6411 325.45 31.6411H209.109C206.38 31.6411 204.167 33.854 204.167 36.5837C204.167 39.3134 206.38 41.5262 209.109 41.5262H325.45C328.179 41.5262 330.392 39.3134 330.392 36.5837ZM194.282 36.5837C194.282 33.854 192.069 31.6411 189.339 31.6411L140.674 31.6411C137.944 31.6411 135.731 33.854 135.731 36.5837C135.731 39.3134 137.944 41.5262 140.674 41.5262L189.339 41.5262C192.069 41.5262 194.282 39.3134 194.282 36.5837ZM330.392 61.7352C330.392 59.0055 328.179 56.7926 325.45 56.7926H299.596C296.867 56.7926 294.654 59.0055 294.654 61.7352C294.654 64.4649 296.867 66.6777 299.596 66.6777H325.45C328.179 66.6777 330.392 64.4649 330.392 61.7352ZM282.487 61.7352C282.487 59.0055 280.275 56.7926 277.545 56.7926H140.674C137.944 56.7926 135.731 59.0055 135.731 61.7352C135.731 64.4649 137.944 66.6777 140.674 66.6777H277.545C280.275 66.6777 282.487 64.4649 282.487 61.7352ZM330.392 86.8866C330.392 84.1569 328.179 81.9441 325.45 81.9441H276.784C274.055 81.9441 271.842 84.1569 271.842 86.8866C271.842 89.6163 274.055 91.8292 276.784 91.8292H325.45C328.179 91.8292 330.392 89.6163 330.392 86.8866ZM263.478 86.8866C263.478 84.1569 261.265 81.9441 258.535 81.9441H234.202C231.473 81.9441 229.26 84.1569 229.26 86.8866C229.26 89.6163 231.473 91.8292 234.202 91.8292H258.535C261.265 91.8292 263.478 89.6163 263.478 86.8866ZM220.896 86.8866C220.896 84.1569 218.683 81.9441 215.953 81.9441H140.674C137.944 81.9441 135.731 84.1569 135.731 86.8866C135.731 89.6163 137.944 91.8292 140.674 91.8292H215.953C218.683 91.8292 220.896 89.6163 220.896 86.8866Z"/>
  <path d="M4.94336 161.913C4.94336 191.313 28.2174 215.276 57.3456 216.384C58.4896 216.427 59.4043 217.383 59.3456 218.526L57.5871 252.817C57.4984 254.547 59.5013 255.564 60.8457 254.471L107.123 216.871C107.479 216.582 107.925 216.424 108.384 216.424H218.092C248.197 216.424 272.602 192.019 272.602 161.913C272.602 131.808 248.197 107.403 218.092 107.403H194.68H166.377H59.4535C29.3484 107.403 4.94336 131.808 4.94336 161.913Z" fill="white" />
  <path className="outline" fill-rule="evenodd" clip-rule="evenodd" d="M218.092 112.346C245.468 112.346 267.66 134.538 267.66 161.914C267.66 189.289 245.468 211.481 218.092 211.481H108.214C106.73 211.481 105.291 211.992 104.139 212.928L107.255 216.764L104.139 212.928L62.8624 246.465L64.308 218.276L59.3719 218.022L64.308 218.275C64.5002 214.527 61.5229 211.562 57.9921 211.46C31.2943 210.688 9.88635 188.8 9.88635 161.914C9.88635 134.538 32.0785 112.346 59.4539 112.346H166.378C169.107 112.346 171.32 110.133 171.32 107.403C171.32 104.674 169.107 102.461 166.378 102.461H59.4539C26.6191 102.461 0.00122899 129.079 0.00122899 161.914C0.00122899 192.999 23.8576 218.512 54.2628 221.143L52.5963 253.64C52.3096 259.23 58.7822 262.517 63.1269 258.987L109.429 221.366H218.092C250.927 221.366 277.545 194.748 277.545 161.914C277.545 129.079 250.927 102.461 218.092 102.461H194.681C191.951 102.461 189.738 104.674 189.738 107.403C189.738 110.133 191.951 112.346 194.681 112.346H218.092ZM223.632 131.063L179.706 131.063C176.976 131.063 174.763 133.276 174.763 136.005C174.763 138.735 176.976 140.948 179.706 140.948L223.632 140.948C226.362 140.948 228.575 138.735 228.575 136.005C228.575 133.276 226.362 131.063 223.632 131.063ZM165.678 136.005C165.678 133.276 163.465 131.063 160.736 131.063H54.6122C51.8825 131.063 49.6697 133.276 49.6697 136.005C49.6697 138.735 51.8825 140.948 54.6122 140.948H160.736C163.465 140.948 165.678 138.735 165.678 136.005ZM228.575 159.067C228.575 156.338 226.362 154.125 223.632 154.125H98.6396C95.9099 154.125 93.6971 156.338 93.6971 159.067C93.6971 161.797 95.9099 164.01 98.6396 164.01H223.632C226.362 164.01 228.575 161.797 228.575 159.067ZM82.5155 159.067C82.5155 156.338 80.3026 154.125 77.5729 154.125H54.6122C51.8825 154.125 49.6697 156.338 49.6697 159.067C49.6697 161.797 51.8825 164.01 54.6122 164.01H77.5729C80.3026 164.01 82.5155 161.797 82.5155 159.067ZM228.575 182.129C228.575 179.4 226.362 177.187 223.632 177.187H155.246C152.517 177.187 150.304 179.4 150.304 182.129C150.304 184.859 152.517 187.072 155.246 187.072H223.632C226.362 187.072 228.575 184.859 228.575 182.129ZM142.616 182.129C142.616 179.4 140.404 177.187 137.674 177.187H116.111C113.381 177.187 111.168 179.4 111.168 182.129C111.168 184.859 113.381 187.072 116.111 187.072H137.674C140.404 187.072 142.616 184.859 142.616 182.129ZM103.481 182.129C103.481 179.4 101.268 177.187 98.5384 177.187H54.6122C51.8825 177.187 49.6697 179.4 49.6697 182.129C49.6697 184.859 51.8825 187.072 54.6122 187.072H98.5384C101.268 187.072 103.481 184.859 103.481 182.129Z" />
</svg>
