<svg width="33" height="26" viewBox="0 0 33 26" fill="none" xmlns="http://www.w3.org/2000/svg">
  <path d="M12.7944 17.9219C12.7944 19.3369 12.045 21.6525 10.2712 21.6525C8.4975 21.6525 7.74812 19.3369 7.74812 17.9219C7.74812 16.5068 8.4975 14.1912 10.2712 14.1912C12.045 14.1912 12.7944 16.5068 12.7944 17.9219V17.9219ZM33 14.5027C33 16.6625 32.78 18.951 31.7969 20.9348C29.1913 26.1211 22.0275 25.9992 16.8988 25.9992C11.6875 25.9992 4.0975 26.182 1.38875 20.9348C0.385 18.9713 0 16.6625 0 14.5027C0 11.6658 0.955625 8.98463 2.85313 6.81126C2.49563 5.7415 2.32375 4.61757 2.32375 3.50719C2.32375 2.0515 2.66063 1.32027 3.3275 0C6.44188 0 8.43562 0.609357 10.8075 2.43743C12.8013 1.97025 14.85 1.76036 16.9056 1.76036C18.7619 1.76036 20.6319 1.95671 22.4331 2.38326C24.7706 0.575503 26.7644 0 29.8444 0C30.5181 1.32027 30.8481 2.0515 30.8481 3.50719C30.8481 4.61757 30.6694 5.72118 30.3188 6.77063C32.2094 8.96432 33 11.6658 33 14.5027V14.5027ZM28.5794 17.9219C28.5794 14.9496 26.7438 12.3293 23.5263 12.3293C22.2269 12.3293 20.9825 12.5595 19.6763 12.7356C18.6519 12.8913 17.6275 12.9522 16.5756 12.9522C15.5306 12.9522 14.5063 12.8913 13.475 12.7356C12.1894 12.5595 10.9313 12.3293 9.625 12.3293C6.4075 12.3293 4.57188 14.9496 4.57188 17.9219C4.57188 23.8665 10.0994 24.7805 14.9119 24.7805H18.2256C23.0588 24.7805 28.5794 23.8732 28.5794 17.9219V17.9219ZM22.9006 14.1912C21.1269 14.1912 20.3775 16.5068 20.3775 17.9219C20.3775 19.3369 21.1269 21.6525 22.9006 21.6525C24.6744 21.6525 25.4237 19.3369 25.4237 17.9219C25.4237 16.5068 24.6744 14.1912 22.9006 14.1912Z" fill="#4DB7CE" />
</svg>
