<svg width="26" height="26" viewBox="0 0 26 26" fill="none" xmlns="http://www.w3.org/2000/svg">
  <path d="M26 2.78571V23.2143C26 24.7528 24.7528 26 23.2143 26H2.78571C1.24719 26 0 24.7528 0 23.2143V2.78571C0 1.24719 1.24719 0 2.78571 0H23.2143C24.7528 0 26 1.24719 26 2.78571ZM20.8929 3.71429H14.3945C13.1576 3.71429 12.5328 5.21515 13.4096 6.09207L15.2658 7.94845L3.91828 19.296C3.64633 19.568 3.64633 20.0089 3.91828 20.2809L5.71907 22.0817C5.99108 22.3537 6.43204 22.3537 6.704 22.0817L18.0515 10.7342L19.9079 12.5908C20.7802 13.463 22.2857 12.8506 22.2857 11.6059V5.10714C22.2857 4.33788 21.6621 3.71429 20.8929 3.71429Z" fill="#4DB7CE" />
</svg>
